<svg width="95" height="59" viewBox="0 0 95 59" fill="none" xmlns="http://www.w3.org/2000/svg">
<path d="M76.1838 25.1975V32.1408H61.7056L52.91 22.3917L51.2016 23.3801L46.172 17.7272L33.239 32.1408H18.834V25.1975H34.5487L20.9394 17.3419L24.4115 11.3274L38.0209 19.1831L30.1636 5.57646L36.1794 2.10222L44.0365 15.7117V0H50.9811V15.7117L58.8384 2.10222L64.8541 5.57646L56.9969 19.1831L70.6062 11.3274L74.0784 17.3419L60.469 25.1975H76.1838Z" fill="#FEBE04"/>
<path d="M50.641 29.1261L46.2934 20.253L50.8601 25.6013L52.3607 24.5989L58.5544 31.2842L52.4236 27.3602L50.641 29.1261ZM52.4236 23.2875L50.8601 24.1865L46.2619 19.0442L34.439 32.1584H60.4621L52.4236 23.2875ZM6.82953 54.0149C5.61481 54.0149 4.54389 53.7952 3.61781 53.3557C2.69035 52.9166 1.97133 52.2978 1.46006 51.4983C0.948449 50.6996 0.693359 49.7648 0.693359 48.6941H3.21008C3.21008 49.3018 3.35389 49.8568 3.64149 50.3601C3.9291 50.8634 4.34037 51.2631 4.87601 51.5584C5.4113 51.8541 6.06247 52.0016 6.82989 52.0016C7.50121 52.0016 8.0796 51.89 8.56754 51.6661C9.05513 51.4424 9.42646 51.1352 9.68193 50.7433C9.93773 50.3523 10.0656 49.9008 10.0656 49.3894C10.0656 48.7983 9.93384 48.3151 9.67027 47.9392C9.40633 47.5641 9.05053 47.2525 8.60323 47.0045C8.15592 46.7573 7.62841 46.5336 7.02139 46.3338C6.39117 46.1268 5.75989 45.9232 5.12757 45.7226C3.80085 45.2755 2.81437 44.7081 2.16707 44.0209C1.51977 43.3342 1.19649 42.4392 1.19649 41.3367C1.19649 40.3941 1.4159 39.5753 1.85543 38.8801C2.29498 38.1852 2.92247 37.6419 3.73725 37.2505C4.55236 36.8592 5.50281 36.6634 6.58998 36.6634C7.69236 36.6634 8.64704 36.8634 9.45439 37.2626C10.261 37.6621 10.8962 38.2132 11.3603 38.9161C11.8235 39.6195 12.0633 40.4422 12.0792 41.3846H9.53812C9.53812 40.9534 9.42648 40.5301 9.20283 40.1143C8.97881 39.6994 8.64315 39.3595 8.19585 39.096C7.74818 38.8323 7.19699 38.7002 6.54228 38.7002C5.99852 38.6848 5.51128 38.7724 5.07952 38.9642C4.64847 39.1556 4.30857 39.4354 4.06088 39.8028C3.81286 40.1705 3.68919 40.61 3.68919 41.1211C3.68919 41.6327 3.80085 42.0439 4.02485 42.3555C4.2485 42.667 4.56437 42.9347 4.97175 43.158C5.37914 43.382 5.86249 43.5858 6.42215 43.7691C6.98111 43.9532 7.5966 44.1569 8.26792 44.3806C9.08268 44.6523 9.8176 44.9836 10.473 45.375C11.1281 45.7668 11.6436 46.2701 12.0191 46.8848C12.3948 47.5002 12.5828 48.2869 12.5828 49.2456C12.5828 50.0764 12.3672 50.8512 11.9355 51.5704C11.5044 52.2892 10.8649 52.8763 10.0176 53.3317C9.17066 53.7874 8.10786 54.0149 6.82953 54.0149ZM16.2502 58.9999L19.1987 52.3853H18.5034L13.7331 41.6486H16.346L20.1096 50.4198L23.9209 41.6486H26.4379L18.7673 58.9999H16.2502ZM28.0679 53.7273V41.6481H30.2252L30.3691 43.7095C30.7528 42.9747 31.292 42.3996 31.9873 41.9838C32.6822 41.5687 33.4932 41.3607 34.4203 41.3607C35.3948 41.3607 36.2258 41.5524 36.9134 41.9357C37.6002 42.3194 38.1317 42.8988 38.5072 43.6734C38.8828 44.4487 39.0707 45.4191 39.0707 46.5852V53.7273H36.6734V46.8247C36.6734 45.7068 36.4261 44.8562 35.9304 44.2726C35.435 43.6897 34.7157 43.3979 33.773 43.3979C33.1497 43.3979 32.5901 43.5498 32.095 43.8532C31.5994 44.1571 31.204 44.5962 30.9086 45.1715C30.6125 45.7466 30.4652 46.4499 30.4652 47.2804V53.7273H28.0679ZM46.1422 52.0738C46.6535 52.0738 47.1166 51.9699 47.5325 51.7622C47.9467 51.5559 48.3109 51.2613 48.5992 50.8995C48.8939 50.5333 49.1249 50.12 49.2825 49.6772C49.4418 49.23 49.5299 48.7585 49.5462 48.2632V48.2152H46.6933C45.9903 48.2152 45.4266 48.2953 45.0034 48.455C44.5798 48.6147 44.2724 48.8425 44.0805 49.1379C43.8891 49.4336 43.7929 49.7731 43.7929 50.1563C43.7929 50.54 43.8848 50.8754 44.0686 51.163C44.2522 51.4507 44.524 51.6746 44.8836 51.8339C45.2433 51.9938 45.6627 52.0738 46.1422 52.0738ZM45.6868 54.0149C44.6956 54.0149 43.8728 53.847 43.2177 53.5117C42.5624 53.1762 42.0751 52.7247 41.7553 52.1574C41.4356 51.5904 41.2762 50.9713 41.2762 50.3005C41.2762 49.5176 41.4835 48.8425 41.8991 48.2752C42.3146 47.7082 42.9061 47.2726 43.6731 46.9688C44.4402 46.6657 45.367 46.5132 46.4538 46.5132H49.5701C49.5701 45.8102 49.4659 45.2274 49.2586 44.7639C49.0504 44.3007 48.743 43.9493 48.3357 43.7095C47.9279 43.47 47.4128 43.3501 46.7895 43.3501C46.0701 43.3501 45.4549 43.5218 44.9437 43.8653C44.4321 44.2089 44.1123 44.732 43.9848 45.435H41.5878C41.6836 44.5723 41.975 43.8377 42.4626 43.23C42.9499 42.6231 43.5774 42.1597 44.3445 41.84C45.1116 41.5206 45.9263 41.3609 46.7895 41.3609C47.924 41.3609 48.8748 41.5609 49.6419 41.9601C50.4089 42.3592 50.988 42.9227 51.3798 43.6497C51.7713 44.3767 51.967 45.2429 51.967 46.2497V53.7273H49.8817L49.69 51.6901C49.5247 52.0179 49.3193 52.3239 49.0787 52.6011C48.8292 52.89 48.5383 53.1404 48.2155 53.3441C47.8879 53.5517 47.5163 53.7149 47.101 53.835C46.6852 53.9551 46.2142 54.0149 45.6868 54.0149ZM60.5246 41.6486V43.6618H57.6004V53.7273H55.2028V43.6618H53.4288V41.6486H55.2028V40.019C55.2028 39.1881 55.3466 38.5085 55.6343 37.9815C55.9226 37.4541 56.3374 37.0707 56.8811 36.8309C57.4239 36.5914 58.0795 36.4717 58.8466 36.4717H60.261V38.5085H59.2063C58.6464 38.5085 58.2389 38.625 57.9838 38.856C57.7281 39.0882 57.6004 39.4838 57.6004 40.0423V41.6486H60.5246ZM66.422 52.0738C66.9332 52.0738 67.3964 51.9699 67.8122 51.7622C68.2265 51.5559 68.5905 51.2613 68.8789 50.8995C69.1737 50.5333 69.4047 50.12 69.5623 49.6772C69.7213 49.23 69.8096 48.7585 69.8258 48.2632V48.2152H66.9731C66.2699 48.2152 65.7064 48.2953 65.2832 48.455C64.8592 48.6147 64.5518 48.8425 64.3603 49.1379C64.1687 49.4336 64.0727 49.7731 64.0727 50.1563C64.0727 50.54 64.1645 50.8754 64.3483 51.163C64.532 51.4507 64.8037 51.6746 65.1634 51.8339C65.523 51.9938 65.9425 52.0738 66.422 52.0738ZM65.9662 54.0149C64.9754 54.0149 64.1526 53.847 63.4975 53.5117C62.842 53.1762 62.3548 52.7247 62.0348 52.1574C61.7152 51.5904 61.556 50.9713 61.556 50.3005C61.556 49.5176 61.7633 48.8425 62.1788 48.2752C62.5944 47.7082 63.1858 47.2726 63.9526 46.9688C64.72 46.6657 65.6468 46.5132 66.7333 46.5132H69.8495C69.8495 45.8102 69.7457 45.2274 69.5382 44.7639C69.3299 44.3007 69.0225 43.9493 68.6154 43.7095C68.2077 43.47 67.6925 43.3501 67.0692 43.3501C66.3499 43.3501 65.7347 43.5218 65.2234 43.8653C64.7119 44.2089 64.3921 44.732 64.2646 45.435H61.8675C61.963 44.5723 62.2548 43.8377 62.7424 43.23C63.2297 42.6231 63.8571 42.1597 64.6242 41.84C65.3909 41.5206 66.2061 41.3609 67.0692 41.3609C68.2034 41.3609 69.1546 41.5609 69.9217 41.9601C70.6884 42.3592 71.2678 42.9227 71.6596 43.6497C72.051 44.3767 72.2468 45.2429 72.2468 46.2497V53.7273H70.1615L69.9696 51.6901C69.8045 52.0179 69.5991 52.3239 69.3584 52.6011C69.1089 52.89 68.818 53.1404 68.4953 53.3441C68.1677 53.5517 67.7956 53.7149 67.3808 53.835C66.965 53.9551 66.4937 54.0149 65.9662 54.0149ZM74.8353 53.7273V41.6481H76.9927L77.1846 43.9252C77.4725 43.3819 77.8275 42.9227 78.2516 42.5472C78.6745 42.1718 79.1862 41.8803 79.7854 41.6722C80.385 41.4649 81.0516 41.3607 81.7874 41.3607V43.8773H80.9245C80.4285 43.8773 79.9568 43.9408 79.5097 44.069C79.0622 44.1969 78.6706 44.4043 78.3349 44.6922C77.9996 44.9798 77.7318 45.3669 77.5323 45.8543C77.3319 46.3418 77.2327 46.9612 77.2327 47.7117V53.7273H74.8353ZM88.5948 54.0149C87.444 54.0149 86.4254 53.7513 85.5386 53.2239C84.6517 52.6966 83.9563 51.9621 83.4529 51.019C82.9498 50.0764 82.6979 48.9739 82.6979 47.7117C82.6979 46.4499 82.9416 45.3432 83.4292 44.3923C83.9167 43.442 84.6114 42.6991 85.5145 42.1636C86.4173 41.6283 87.4599 41.3607 88.6428 41.3607C89.8251 41.3607 90.8398 41.6242 91.6872 42.1516C92.534 42.6786 93.1851 43.3738 93.6409 44.2365C94.096 45.0995 94.3239 46.0582 94.3239 47.1126V47.6398C94.3239 47.8315 94.3077 48.0315 94.276 48.2388H84.4478V46.5612H91.9507C91.903 45.5708 91.5673 44.7879 90.944 44.2128C90.3209 43.6373 89.5453 43.3498 88.6192 43.3498C87.9634 43.3498 87.3642 43.4978 86.8212 43.7931C86.2774 44.0891 85.846 44.5205 85.5265 45.0875C85.2064 45.6548 85.0471 46.3698 85.0471 47.2325V47.9036C85.0471 48.7983 85.2064 49.5494 85.5265 50.1563C85.846 50.7635 86.2735 51.227 86.809 51.5462C87.344 51.8661 87.9397 52.0257 88.5948 52.0257C89.3619 52.0257 89.9974 51.858 90.5006 51.5223C91.0038 51.1867 91.3674 50.7315 91.5913 50.1563H93.9883C93.7843 50.8841 93.4244 51.5587 92.9336 52.1335C92.438 52.717 91.8312 53.1759 91.1119 53.5115C90.3925 53.847 89.5538 54.0149 88.5948 54.0149Z" fill="#FEBE04"/>
</svg>
